<?xml version="1.0" encoding="UTF-8" standalone="no"?>
<svg xmlns:dc="http://purl.org/dc/elements/1.1/" xmlns:cc="http://creativecommons.org/ns#" xmlns:rdf="http://www.w3.org/1999/02/22-rdf-syntax-ns#" xmlns:svg="http://www.w3.org/2000/svg" xmlns="http://www.w3.org/2000/svg" xmlns:sodipodi="http://sodipodi.sourceforge.net/DTD/sodipodi-0.dtd" xmlns:inkscape="http://www.inkscape.org/namespaces/inkscape" version="1.1" id="Layer_1" x="0px" y="0px" viewBox="0 0 948.76001 778.14838" xml:space="preserve" sodipodi:docname="3.svg" width="948.76001" height="778.14838" inkscape:version="1.0.1 (c497b03c, 2020-09-10)">
    <metadata id="metadata887">
        <rdf:RDF>
            <cc:Work rdf:about="">
                <dc:format>image/svg+xml</dc:format>
                <dc:type rdf:resource="http://purl.org/dc/dcmitype/StillImage" />
                <dc:title></dc:title>
            </cc:Work>
        </rdf:RDF>
    </metadata>
    <defs id="defs885" />
    <sodipodi:namedview pagecolor="#ffffff" bordercolor="#666666" borderopacity="1" objecttolerance="10" gridtolerance="10" guidetolerance="10" inkscape:pageopacity="0" inkscape:pageshadow="2" inkscape:window-width="1536" inkscape:window-height="915" id="namedview883" showgrid="false" fit-margin-top="0" fit-margin-left="0" fit-margin-right="0" fit-margin-bottom="0" inkscape:zoom="0.3645" inkscape:cx="524.65" inkscape:cy="352.95835" inkscape:window-x="0" inkscape:window-y="23" inkscape:window-maximized="1" inkscape:current-layer="Layer_1" />
    <style type="text/css" id="style864">
	.st0{fill:#4D4E49;}
	.st1{fill:#F17501;}
	.st2{fill:#26A9E1;}
</style>
    <path class="st0" d="m 108.04,0.44835008 c 259.4,-0.88 518.8,-0.15 778.2,-0.39 C 886.19,24.81835 886.29,49.58835 886.19,74.34835 c -11.87,2.82 -23.69,5.69 -35.51,8.71 -0.78,-15.62 -0.63,-31.23 -0.54,-46.85 -235.27,-0.05 -470.54,-0.1 -705.81,0 0.05,99.59 -0.1,199.22 0.1,298.8 -12.07,14.94 -24.08,29.92 -36.1,44.85 -0.33,-126.49 0.2,-252.97 -0.29,-379.40999992 z" id="path866" />
    <path class="st1" d="m 787.58,126.39835 c 53.66,-13.72 107.47,-26.56 161.18,-39.99 -12.94,47.34 -25.25,94.82 -37.75,142.25 -13.33,-7.35 -26.47,-15.03 -39.6,-22.67 -69.62,76.43 -139.23,152.91 -208.8,229.43 -47.24,-39.26 -94.82,-78.18 -142.01,-117.49 -63.58,59.5 -125.71,120.65 -188.08,181.41 -46.22,-44.03 -91.07,-89.47 -136.75,-134.08 -65.73,60.13 -129.55,122.4 -195.77,182.05 65.09,-82.56 131.79,-163.9 197.47,-246.02 43.54,31.67 87.03,63.29 130.28,95.26 61.2,-65 122.55,-129.89 184.28,-194.4 42.96,37.27 86.74,73.61 129.8,110.77 3.45,2.34 8.51,9 12.55,3.31 56.04,-50.25 112.33,-100.17 168.33,-150.47 -11.68,-13.19 -23.5,-26.18 -35.13,-39.36 z" id="path868" />
    <g id="g880" transform="translate(-475.35,-647.04165)">
        <path class="st2" d="m 1325.59,890.15 c 2.04,-2.48 6.13,-7.44 8.17,-9.88 9.24,5.11 18.49,10.41 27.63,15.76 0,176.35 0.15,352.76 -0.05,529.16 -259.25,-0.19 -518.51,0 -777.76,-0.1 0,-105.23 -0.1,-210.46 0.05,-315.69 11.92,-11.38 24.03,-22.48 35.95,-33.81 0.24,104.45 0.05,208.9 0.1,313.4 235.32,0 470.63,0 705.95,0 0.01,-166.27 0.11,-332.56 -0.04,-498.84 z" id="path870" />
        <path class="st2" d="m 1128.95,1113.21 c 36.49,-41.11 74.04,-81.24 110.68,-122.26 0.44,124.88 0.05,249.81 0.19,374.7 -39.5,0.1 -79.01,0.1 -118.51,0 -0.19,-85.67 0.44,-171.34 -0.34,-256.97 1.99,1.12 5.98,3.41 7.98,4.53 z" id="path872" />
        <path class="st2" d="m 985.43,995.82 c 34.98,29.14 70.44,57.75 105.18,87.13 -0.15,94.28 0,188.52 -0.05,282.75 -39.26,0 -78.52,0.05 -117.78,-0.05 -0.1,-118.75 0.15,-237.56 -0.1,-356.31 4.24,-4.52 8.47,-9 12.75,-13.52 z" id="path874" />
        <path class="st2" d="m 831.55,1145.56 c 39.11,-38.92 78.91,-77.16 118.9,-115.2 0.1,111.75 0.05,223.54 0.05,335.29 -39.6,0.05 -79.2,0.05 -118.8,0 -0.1,-73.37 0.2,-146.73 -0.15,-220.09 z" id="path876" />
        <path class="st2" d="m 683.37,1065.04 c 26.66,27.68 55.22,53.37 81.93,81 11.77,11.14 21.99,24.18 35.76,33.08 -0.58,62.22 -0.1,124.4 -0.29,186.57 -39.11,-0.05 -78.18,0.05 -117.29,-0.05 -0.01,-100.21 0.13,-200.38 -0.11,-300.6 z" id="path878" />
    </g>
</svg>